<?xml version="1.0" encoding="utf-8"?>
<!-- Generator: Adobe Illustrator 19.0.0, SVG Export Plug-In . SVG Version: 6.00 Build 0)  -->
<svg version="1.1" id="Capa_1" xmlns="http://www.w3.org/2000/svg" xmlns:xlink="http://www.w3.org/1999/xlink" x="0px" y="0px"
	 viewBox="0 0 560 560" style="enable-background:new 0 0 560 560;" xml:space="preserve">
<style type="text/css">
	.st0{display:none;fill:#3C25C1;}
	.st1{fill:none;}
	.st2{fill:#FFFFFF;}
</style>
<circle id="XMLID_1_" class="st0" cx="299.4" cy="270.1" r="94"/>
<g id="XMLID_3_">
	<path id="XMLID_4_" class="st1" d="M300.3,178.7c-50.4,0-91.3,40.9-91.3,91.3c0,50.4,40.9,91.3,91.3,91.3
		c22.6,0,43.3-8.3,59.3-21.9c17.7-17.7,31.2-39.5,31.2-66.5c0-27-12-53.4-29.7-71.1C344.9,187.5,323.6,178.7,300.3,178.7z"/>
	<path id="XMLID_9_" class="st1" d="M107.7,280c0,113.2,91.8,205,205,205c53.3,0,101.9-20.4,138.4-53.8L382.8,363
		c-21.9,19.5-50.8,31.3-82.5,31.3c-68.6,0-124.2-55.6-124.2-124.2c0-68.6,55.6-124.2,124.2-124.2c32.6,0,62.3,12.6,84.5,33.1
		l58.9-56.7C408.1,92.7,362.5,75,312.7,75C199.5,75,107.7,166.8,107.7,280z"/>
	<g id="XMLID_5_">
		<path id="XMLID_6_" class="st2" d="M312.7,485c-113.2,0-205-91.8-205-205s91.8-205,205-205c49.8,0,95.4,17.7,130.9,47.3l53.2-53.2
			C447.6,26.1,383.2,0,312.7,0C158,0,32.7,125.4,32.7,280s125.4,280,280,280c74,0,141.4-28.8,191.4-75.7l-53-53
			C414.6,464.6,366,485,312.7,485z"/>
		<path id="XMLID_27_" class="st2" d="M300.3,145.8c-68.6,0-124.2,55.6-124.2,124.2c0,68.6,55.6,124.2,124.2,124.2
			c31.7,0,60.5-11.8,82.5-31.3l68.3,68.3c40.9-37.5,66.6-91.4,66.6-151.3c0-63.4-28.8-120.2-74.1-157.8L384.7,179
			C362.6,158.4,332.9,145.8,300.3,145.8z M300.3,178.8c23.4,0,44.7,8.8,60.8,23.3c9.5,9.5,17.4,20.9,22.6,34.9H215.2
			C228.5,203,261.6,178.8,300.3,178.8z M359.6,339.5c-16,13.6-36.7,21.7-59.3,21.7c-50,0-90.6-40.2-91.3-90.2h181.8c0,0,0,1.3,0,1.8
			C390.8,299.8,377.2,321.8,359.6,339.5z"/>
	</g>
</g>
</svg>
